Coordinates
version=1
nRows=9
nColumns=24
inDegrees=yes

Units are S.I. units (second, meters, Newtons, ...)
Angles are in degrees.

endheader
time	pelvis_tilt	pelvis_list	pelvis_rotation	pelvis_tx	pelvis_ty	pelvis_tz	hip_flexion_r	hip_adduction_r	hip_rotation_r	knee_angle_r	ankle_angle_r	subtalar_angle_r	mtp_angle_r	hip_flexion_l	hip_adduction_l	hip_rotation_l	knee_angle_l	ankle_angle_l	subtalar_angle_l	mtp_angle_l	lumbar_extension	lumbar_bending	lumbar_rotation
      1.07483333	     -0.34556243	     -1.30605663	      3.18592913	      0.55655131	      1.01697050	      0.32097257	      8.35869369	      5.72092797	      3.47371602	    -14.53813059	      4.55410480	    -16.49513536	      7.20962663	     16.32972755	     -1.44051059	     -1.69304513	    -70.64305553	      3.92851937	     -6.86143256	      7.77134495	      0.83752484	      2.30574217	      1.51769012
      1.07900000	     -0.33326127	     -1.20498344	      2.90485752	      0.56121500	      1.01756155	      0.32135211	      7.90200423	      5.64244813	      3.66891688	    -14.23092022	      4.65280392	    -16.35199027	      7.32123672	     16.85460698	     -1.32840900	     -1.93883461	    -70.39999540	      4.05301853	     -7.10014276	      7.74800281	      0.77914027	      2.21902373	      1.80128939
      1.08316667	     -0.32620193	     -1.11434473	      2.62309787	      0.56585064	      1.01810171	      0.32173494	      7.45950447	      5.57130302	      3.85949658	    -13.93399865	      4.73364931	    -16.19876930	      7.43046661	     17.38282903	     -1.23977762	     -2.19134359	    -70.13666885	      4.19402272	     -7.33098898	      7.71786853	      0.72337450	      2.13323484	      2.00703794
      1.08733333	     -0.33115354	     -1.02031583	      2.35074884	      0.57047834	      1.01860084	      0.32209610	      7.03425763	      5.48990777	      4.03455377	    -13.64484432	      4.81729577	    -16.04057914	      7.55197318	     17.91578184	     -1.14852409	     -2.43319243	    -69.83902642	      4.32441141	     -7.57162396	      7.67573203	      0.68745943	      2.04335801	      2.21357043
      1.09150000	     -0.33293295	     -0.95308871	      2.08337903	      0.57508732	      1.01904706	      0.32244729	      6.60705536	      5.43409768	      4.21074399	    -13.35033131	      4.87741261	    -15.88514927	      7.59473802	     18.44528134	     -1.09666609	     -2.66739260	    -69.53019449	      4.49539749	     -7.75404984	      7.65893103	      0.65422787	      1.99610505	      2.28136487
      1.09566667	     -0.31349200	     -0.85393208	      1.81135151	      0.57965462	      1.01952000	      0.32281684	      6.16853305	      5.34399096	      4.39987255	    -13.08095173	      4.97647297	    -15.73652666	      7.67607622	     18.93712125	     -1.01553077	     -2.91152527	    -69.16758001	      4.57704616	     -8.03415506	      7.61864981	      0.56397397	      1.87092146	      2.51004517
      1.09983333	     -0.32100749	     -0.77787708	      1.55927335	      0.58423455	      1.01990507	      0.32312071	      5.75708684	      5.26817030	      4.55960582	    -12.80587321	      5.08307973	    -15.57947282	      7.78914142	     19.45501555	     -0.95012807	     -3.11635507	    -68.78782218	      4.68498407	     -8.25293752	      7.55768328	      0.53185147	      1.81570055	      2.75717384
      1.10400000	     -0.31444966	     -0.70948375	      1.29964547	      0.58878606	      1.02027437	      0.32344208	      5.33613120	      5.19968906	      4.72922400	    -12.53556947	      5.14885742	    -15.42325343	      7.83665774	     19.95080215	     -0.91091493	     -3.33778556	    -68.38650284	      4.82831183	     -8.42014390	      7.52999369	      0.47760969	      1.75833592	      2.83070491
      1.10816667	     -0.30145049	     -0.64115313	      1.05286000	      0.59332637	      1.02062702	      0.32375617	      4.90919099	      5.12921404	      4.89701186	    -12.26750822	      5.24790202	    -15.27216361	      7.90111980	     20.43120003	     -0.87290381	     -3.54398099	    -67.95064375	      4.91788245	     -8.62233796	      7.48741091	      0.40701192	      1.67052661	      3.00165386
